HIERARCHY
ROOT hip
{
	OFFSET 0.000000 0.000000 0.000000 
	CHANNELS 6 Xposition Yposition Zposition Xrotation Zrotation Yrotation
	JOINT abdomen
	{
		OFFSET 0.000000 3.402643 0.000000 
		CHANNELS 3 Xrotation Zrotation Yrotation
		JOINT chest
		{
			OFFSET 0.000000 8.438565 -0.680529 
			CHANNELS 3 Xrotation Zrotation Yrotation
			JOINT neck
			{
				OFFSET 0.000000 10.207942 -0.272212 
				CHANNELS 3 Xrotation Zrotation Yrotation
				JOINT head
				{
					OFFSET 0.000000 3.130431 0.000000 
					CHANNELS 3 Xrotation Zrotation Yrotation
					End Site
					{
						OFFSET 0.000000 3.130435 0.000000 
					}
				}
			}
			JOINT lCollar
			{
				OFFSET 3.470700 6.669187 -0.816635 
				CHANNELS 3 Yrotation Zrotation Xrotation
				JOINT lShldr
				{
					OFFSET 3.198488 0.000000 0.000000 
					CHANNELS 3 Zrotation Yrotation Xrotation
					JOINT lForeArm
					{
						OFFSET 10.139888 0.000000 0.000000 
						CHANNELS 3 Yrotation Zrotation Xrotation
						JOINT lHand
						{
							OFFSET 8.370511 0.000000 0.000000 
							CHANNELS 3 Zrotation Yrotation Xrotation
							End Site
							{
								OFFSET 4.083176 0.000000 0.000000 
							}
						}
					}
				}
			}
			JOINT rCollar
			{
				OFFSET -3.470700 6.669187 -0.816635 
				CHANNELS 3 Yrotation Zrotation Xrotation
				JOINT rShldr
				{
					OFFSET -3.198488 0.000000 0.000000 
					CHANNELS 3 Zrotation Yrotation Xrotation
					JOINT rForeArm
					{
						OFFSET -10.139888 0.000000 0.000000 
						CHANNELS 3 Yrotation Zrotation Xrotation
						JOINT rHand
						{
							OFFSET -8.370511 0.000000 0.000000 
							CHANNELS 3 Zrotation Yrotation Xrotation
							End Site
							{
								OFFSET -4.083176 0.000000 0.000000 
							}
						}
					}
				}
			}
		}
	}
	JOINT lThigh
	{
		OFFSET 5.308129 -1.633274 1.361059 
		CHANNELS 3 Xrotation Zrotation Yrotation
		JOINT lShin
		{
			OFFSET -2.041588 -20.007561 0.000000 
			CHANNELS 3 Xrotation Zrotation Yrotation
			JOINT lFoot
			{
				OFFSET 0.000000 -19.190928 -1.224953 
				CHANNELS 3 Xrotation Yrotation Zrotation
				End Site
				{
					OFFSET 0.000000 -2.449906 4.627600 
				}
			}
		}
	}
	JOINT rThigh
	{
		OFFSET -5.308129 -1.633274 1.361059 
		CHANNELS 3 Xrotation Zrotation Yrotation
		JOINT rShin
		{
			OFFSET 2.041588 -20.007561 0.000000 
			CHANNELS 3 Xrotation Zrotation Yrotation
			JOINT rFoot
			{
				OFFSET 0.000000 -19.190928 -1.224953 
				CHANNELS 3 Xrotation Yrotation Zrotation
				End Site
				{
					OFFSET 0.000000 -2.449906 4.627600 
				}
			}
		}
	}
}
MOTION
Frames: 6
Frame Time: 0.016667
21.080719 41.791798 10.559702 8.028200 4.951240 105.170998 -16.880400 1.283070 4.398130 21.005899 -0.839818 2.346790 17.192301 0.648744 -0.795825 10.852400 4.591740 0.219925 2.000000 -2.000000 0.000000 -45.783699 -33.500900 165.584000 82.666496 -0.232301 0.135645 0.050190 0.032104 -121.794998 -2.000000 2.000000 0.000000 -120.746002 109.727997 21.764799 -61.328602 0.280444 0.119958 -0.066525 -0.051432 -114.500000 -13.121094 2.651110 -11.589247 25.498337 3.017911 1.874267 -4.335352 3.622869 -0.766428 -8.879543 -5.041724 14.800511 44.121586 -3.118607 -2.814818 -27.911880 -16.097725 -9.337591 
21.048588 41.792683 10.551860 8.048040 4.970340 104.920998 -16.827999 1.349540 4.520220 21.005899 -0.751930 2.406090 17.837999 0.769445 -0.896252 11.097700 4.617920 0.184468 2.000000 -2.000000 0.000000 -46.174599 -33.686699 165.466995 80.889198 -0.236498 0.135039 0.049936 0.031152 -122.146004 -2.000000 2.000000 0.000000 -121.593002 110.195000 21.158899 -60.615700 0.281931 0.119133 -0.065866 -0.049810 -115.125000 -13.000589 2.703364 -11.344995 25.409023 3.022005 1.866061 -4.297627 3.659997 -0.761909 -8.978346 -5.106289 14.906485 44.160740 -3.125541 -2.826607 -27.816837 -15.973349 -9.230672 
21.029379 41.806446 10.546041 7.841510 4.914780 104.835999 -16.704700 1.323600 4.395050 21.064501 -0.742158 2.346810 17.610300 0.881947 -0.812544 11.069100 4.686120 0.210004 2.000000 -2.000000 0.000000 -46.231300 -32.818600 165.054993 81.797401 -0.234355 0.135365 0.050126 0.031866 -121.883003 -2.000000 2.000000 0.000000 -122.002998 110.848999 20.786900 -61.904800 0.279234 0.120612 -0.066183 -0.050597 -114.821999 -13.153741 2.844026 -11.560014 25.498049 3.020548 1.874823 -4.388631 3.907319 -0.728697 -9.113046 -4.933711 14.877634 44.092613 -3.118681 -2.824876 -27.658121 -16.015091 -9.206113 
21.010393 41.820084 10.540235 7.634910 4.849410 104.750999 -16.580999 1.301090 4.279110 21.123100 -0.722621 2.297420 17.383200 0.993966 -0.739385 11.040400 4.744630 0.224514 2.000000 -2.000000 0.000000 -46.297901 -31.940599 164.638000 82.715401 -0.232185 0.135660 0.050319 0.032579 -121.619003 -2.000000 2.000000 0.000000 -122.393997 111.501999 20.434601 -63.193901 0.276505 0.122030 -0.066494 -0.051356 -114.528999 -13.349275 2.966004 -11.772219 25.596413 3.023532 1.883938 -4.431755 4.143655 -0.690849 -9.530480 -4.726712 14.855845 44.052570 -3.120847 -2.806298 -27.251871 -16.005760 -9.152363 
21.013874 41.841171 10.533426 7.221260 4.660170 104.642998 -16.606199 1.294810 4.067430 21.035200 -0.712866 2.191190 16.832399 0.986553 -0.550332 10.884100 4.785310 0.294365 2.000000 -2.000000 0.000000 -46.451500 -30.486401 164.264008 84.736801 -0.227390 0.136187 0.051225 0.035761 -120.436996 -2.000000 2.000000 0.000000 -122.211998 112.391998 20.687201 -65.342300 0.271887 0.124256 -0.067169 -0.052971 -113.903999 -13.726229 3.327157 -11.786363 25.875233 2.997302 1.894044 -4.573619 4.131418 -0.669623 -9.734636 -4.334998 14.933360 43.846561 -3.129685 -2.812354 -27.057573 -16.273973 -9.195931 
21.017469 41.862270 10.526629 6.808010 4.480040 104.549004 -16.631100 1.288500 3.855700 20.947300 -0.703109 2.094700 16.281601 0.969195 -0.363260 10.717900 4.816400 0.362043 2.000000 -2.000000 0.000000 -46.615002 -29.041901 163.899002 86.748596 -0.222604 0.136542 0.052197 0.038924 -119.255997 -2.000000 2.000000 0.000000 -122.040001 113.291000 20.920300 -67.481003 0.267211 0.126298 -0.067851 -0.054553 -113.289001 -14.183866 3.659593 -11.797025 26.259745 2.999861 1.928460 -4.721362 4.116434 -0.671023 -9.928350 -3.936529 14.999876 43.639648 -3.140373 -2.799819 -26.881348 -16.500635 -9.236818 
